HIERARCHY



ROOT Elbow



{



	OFFSET	0.00	0.00	0.00



	CHANNELS 6 Xposition Yposition Zposition Zrotation Xrotation Yrotation



	JOINT L_Wrist



	{



		OFFSET	 0.208349	 0.000000	 0.000000



		CHANNELS 3 Zrotation Xrotation Yrotation



		JOINT L_index_Proximal



		{



			OFFSET	 0.093499	 0.010637	-0.002084



			CHANNELS 3 Zrotation Xrotation Yrotation



			JOINT L_index_b



			{



				OFFSET	 0.033152	 0.000000	 0.000000



				CHANNELS 3 Zrotation Xrotation Yrotation



				JOINT L_index_c



				{



					OFFSET	 0.018651	 0.000000	 0.000000



					CHANNELS 3 Zrotation Xrotation Yrotation



					End Site



					{



						OFFSET	 0.018651	 0.000000	 0.000000



					}



				}



			}



		}



		JOINT L_middle_Proximal



		{



			OFFSET	 0.090632	-0.006115	-0.003750



			CHANNELS 3 Zrotation Xrotation Yrotation



			JOINT L_middle_b



			{



				OFFSET	 0.037195	 0.000000	 0.000000



				CHANNELS 3 Zrotation Xrotation Yrotation



				JOINT L_middle_c



				{



					OFFSET	 0.021943	 0.000000	 0.000000



					CHANNELS 3 Zrotation Xrotation Yrotation



					End Site



					{



						OFFSET	 0.021943	 0.000000	 0.000000



					}



				}



			}



		}



		JOINT L_pinky_Proximal



		{



			OFFSET	 0.074015	-0.035449	-0.000417



			CHANNELS 3 Zrotation Xrotation Yrotation



			JOINT L_pinky_b



			{



				OFFSET	 0.027285	 0.000000	 0.000000



				CHANNELS 3 Zrotation Xrotation Yrotation



				JOINT L_pinky_c



				{



					OFFSET	 0.015093	 0.000000	 0.000000



					CHANNELS 3 Zrotation Xrotation Yrotation



					End Site



					{



						OFFSET	 0.015093	 0.000000	 0.000000



					}



				}



			}



		}



		JOINT L_ring_Proximal



		{



			OFFSET	 0.082801	-0.021859	-0.003750



			CHANNELS 3 Zrotation Xrotation Yrotation



			JOINT L_ring_b



			{



				OFFSET	 0.034478	 0.000000	 0.000000



				CHANNELS 3 Zrotation Xrotation Yrotation



				JOINT L_ring_c



				{



					OFFSET	 0.021377	 0.000000	 0.000000



					CHANNELS 3 Zrotation Xrotation Yrotation



					End Site



					{



						OFFSET	 0.021377	 0.000000	 0.000000



					}



				}



			}



		}



		JOINT L_thumb_Proximal



		{



			OFFSET	 0.030306	 0.018528	 0.004584



			CHANNELS 3 Zrotation Xrotation Yrotation



			JOINT L_thumb_a



			{



				OFFSET	 0.038520	 0.000000	 0.000000



				CHANNELS 3 Zrotation Xrotation Yrotation



				JOINT L_thumb_b



				{



					OFFSET	 0.026310	 0.000000	 0.000000



					CHANNELS 3 Zrotation Xrotation Yrotation



					End Site



					{



						OFFSET	 0.026310	 0.000000	 0.000000



					}



				}



			}



		}



	}



}
MOTION
Frames:	20
Frame Time: 0.033333
-0.110297 0.297670 0.657782 -65.759480 34.266290 174.071400 -1.244523 5.157129 30.787000 -2.809617 1.105755 -40.827930 -3.958268 2.557185 -65.712580 -0.965285 0.342569 -39.057480 -13.436720 -6.123425 -56.796410 -2.917774 2.395303 -78.743570 -1.963930 0.770433 -42.846420 -35.341630 -14.288090 -64.136940 -3.687108 2.890958 -76.182490 -2.659058 1.176188 -47.713890 -23.275650 -7.805350 -70.736620 -2.017953 1.826270 -84.281620 0.215256 -0.077795 -39.724910 56.074880 52.760420 -51.234850 -3.665583 0.449751 -13.984240 -4.555906 1.281976 -31.419930
-0.110297 0.297670 0.657782 -65.759480 34.266290 174.071400 -1.244523 5.157129 30.787000 -2.809617 1.105755 -40.827930 -3.958268 2.557185 -65.712580 -0.965285 0.342569 -39.057480 -13.436720 -6.123425 -56.796410 -2.917774 2.395303 -78.743570 -1.963930 0.770433 -42.846420 -35.341630 -14.288090 -64.136940 -3.687108 2.890958 -76.182490 -2.659058 1.176188 -47.713890 -23.275650 -7.805350 -70.736620 -2.017953 1.826270 -84.281620 0.215256 -0.077795 -39.724910 56.074880 52.760420 -51.234850 -3.665583 0.449751 -13.984240 -4.555906 1.281976 -31.419930
-0.110297 0.297670 0.657782 -65.759480 34.266290 174.071400 -1.244523 5.157129 30.787000 -2.809617 1.105755 -40.827930 -3.958268 2.557185 -65.712580 -0.965285 0.342569 -39.057480 -13.436720 -6.123425 -56.796410 -2.917774 2.395303 -78.743570 -1.963930 0.770433 -42.846420 -35.341630 -14.288090 -64.136940 -3.687108 2.890958 -76.182490 -2.659058 1.176188 -47.713890 -23.275650 -7.805350 -70.736620 -2.017953 1.826270 -84.281620 0.215256 -0.077795 -39.724910 56.074880 52.760420 -51.234850 -3.665583 0.449751 -13.984240 -4.555906 1.281976 -31.419930
-0.110297 0.297670 0.657782 -65.759480 34.266290 174.071400 -1.244523 5.157129 30.787000 -2.809617 1.105755 -40.827930 -3.958268 2.557185 -65.712580 -0.965285 0.342569 -39.057480 -13.436720 -6.123425 -56.796410 -2.917774 2.395303 -78.743570 -1.963930 0.770433 -42.846420 -35.341630 -14.288090 -64.136940 -3.687108 2.890958 -76.182490 -2.659058 1.176188 -47.713890 -23.275650 -7.805350 -70.736620 -2.017953 1.826270 -84.281620 0.215256 -0.077795 -39.724910 56.074880 52.760420 -51.234850 -3.665583 0.449751 -13.984240 -4.555906 1.281976 -31.419930
-0.110297 0.297670 0.657782 -65.759480 34.266290 174.071400 -1.244523 5.157129 30.787000 -2.809617 1.105755 -40.827930 -3.958268 2.557185 -65.712580 -0.965285 0.342569 -39.057480 -13.436720 -6.123425 -56.796410 -2.917774 2.395303 -78.743570 -1.963930 0.770433 -42.846420 -35.341630 -14.288090 -64.136940 -3.687108 2.890958 -76.182490 -2.659058 1.176188 -47.713890 -23.275650 -7.805350 -70.736620 -2.017953 1.826270 -84.281620 0.215256 -0.077795 -39.724910 56.074880 52.760420 -51.234850 -3.665583 0.449751 -13.984240 -4.555906 1.281976 -31.419930
-0.110297 0.297670 0.657782 -65.759480 34.266290 174.071400 -1.244523 5.157129 30.787000 -2.809617 1.105755 -40.827930 -3.958268 2.557185 -65.712580 -0.965285 0.342569 -39.057480 -13.436720 -6.123425 -56.796410 -2.917774 2.395303 -78.743570 -1.963930 0.770433 -42.846420 -35.341630 -14.288090 -64.136940 -3.687108 2.890958 -76.182490 -2.659058 1.176188 -47.713890 -23.275650 -7.805350 -70.736620 -2.017953 1.826270 -84.281620 0.215256 -0.077795 -39.724910 56.074880 52.760420 -51.234850 -3.665583 0.449751 -13.984240 -4.555906 1.281976 -31.419930
-0.110297 0.297670 0.657782 -65.759480 34.266290 174.071400 -1.244523 5.157129 30.787000 -2.809617 1.105755 -40.827930 -3.958268 2.557185 -65.712580 -0.965285 0.342569 -39.057480 -13.436720 -6.123425 -56.796410 -2.917774 2.395303 -78.743570 -1.963930 0.770433 -42.846420 -35.341630 -14.288090 -64.136940 -3.687108 2.890958 -76.182490 -2.659058 1.176188 -47.713890 -23.275650 -7.805350 -70.736620 -2.017953 1.826270 -84.281620 0.215256 -0.077795 -39.724910 56.074880 52.760420 -51.234850 -3.665583 0.449751 -13.984240 -4.555906 1.281976 -31.419930
-0.110297 0.297670 0.657782 -65.759480 34.266290 174.071400 -1.244523 5.157129 30.787000 -2.809617 1.105755 -40.827930 -3.958268 2.557185 -65.712580 -0.965285 0.342569 -39.057480 -13.436720 -6.123425 -56.796410 -2.917774 2.395303 -78.743570 -1.963930 0.770433 -42.846420 -35.341630 -14.288090 -64.136940 -3.687108 2.890958 -76.182490 -2.659058 1.176188 -47.713890 -23.275650 -7.805350 -70.736620 -2.017953 1.826270 -84.281620 0.215256 -0.077795 -39.724910 56.074880 52.760420 -51.234850 -3.665583 0.449751 -13.984240 -4.555906 1.281976 -31.419930
-0.110297 0.297670 0.657782 -65.759480 34.266290 174.071400 -1.244523 5.157129 30.787000 -2.809617 1.105755 -40.827930 -3.958268 2.557185 -65.712580 -0.965285 0.342569 -39.057480 -13.436720 -6.123425 -56.796410 -2.917774 2.395303 -78.743570 -1.963930 0.770433 -42.846420 -35.341630 -14.288090 -64.136940 -3.687108 2.890958 -76.182490 -2.659058 1.176188 -47.713890 -23.275650 -7.805350 -70.736620 -2.017953 1.826270 -84.281620 0.215256 -0.077795 -39.724910 56.074880 52.760420 -51.234850 -3.665583 0.449751 -13.984240 -4.555906 1.281976 -31.419930
-0.110297 0.297670 0.657782 -65.759480 34.266290 174.071400 -1.244523 5.157129 30.787000 -2.809617 1.105755 -40.827930 -3.958268 2.557185 -65.712580 -0.965285 0.342569 -39.057480 -13.436720 -6.123425 -56.796410 -2.917774 2.395303 -78.743570 -1.963930 0.770433 -42.846420 -35.341630 -14.288090 -64.136940 -3.687108 2.890958 -76.182490 -2.659058 1.176188 -47.713890 -23.275650 -7.805350 -70.736620 -2.017953 1.826270 -84.281620 0.215256 -0.077795 -39.724910 56.074880 52.760420 -51.234850 -3.665583 0.449751 -13.984240 -4.555906 1.281976 -31.419930
-0.110297 0.297670 0.657782 -65.759480 34.266290 174.071400 -1.244523 5.157129 30.787000 -2.809617 1.105755 -40.827930 -3.958268 2.557185 -65.712580 -0.965285 0.342569 -39.057480 -13.436720 -6.123425 -56.796410 -2.917774 2.395303 -78.743570 -1.963930 0.770433 -42.846420 -35.341630 -14.288090 -64.136940 -3.687108 2.890958 -76.182490 -2.659058 1.176188 -47.713890 -23.275650 -7.805350 -70.736620 -2.017953 1.826270 -84.281620 0.215256 -0.077795 -39.724910 56.074880 52.760420 -51.234850 -3.665583 0.449751 -13.984240 -4.555906 1.281976 -31.419930
-0.110297 0.297670 0.657782 -65.759480 34.266290 174.071400 -1.244523 5.157129 30.787000 -2.809617 1.105755 -40.827930 -3.958268 2.557185 -65.712580 -0.965285 0.342569 -39.057480 -13.436720 -6.123425 -56.796410 -2.917774 2.395303 -78.743570 -1.963930 0.770433 -42.846420 -35.341630 -14.288090 -64.136940 -3.687108 2.890958 -76.182490 -2.659058 1.176188 -47.713890 -23.275650 -7.805350 -70.736620 -2.017953 1.826270 -84.281620 0.215256 -0.077795 -39.724910 56.074880 52.760420 -51.234850 -3.665583 0.449751 -13.984240 -4.555906 1.281976 -31.419930
-0.110297 0.297670 0.657782 -65.759480 34.266290 174.071400 -1.244523 5.157129 30.787000 -2.809617 1.105755 -40.827930 -3.958268 2.557185 -65.712580 -0.965285 0.342569 -39.057480 -13.436720 -6.123425 -56.796410 -2.917774 2.395303 -78.743570 -1.963930 0.770433 -42.846420 -35.341630 -14.288090 -64.136940 -3.687108 2.890958 -76.182490 -2.659058 1.176188 -47.713890 -23.275650 -7.805350 -70.736620 -2.017953 1.826270 -84.281620 0.215256 -0.077795 -39.724910 56.074880 52.760420 -51.234850 -3.665583 0.449751 -13.984240 -4.555906 1.281976 -31.419930
-0.110297 0.297670 0.657782 -65.759480 34.266290 174.071400 -1.244523 5.157129 30.787000 -2.809617 1.105755 -40.827930 -3.958268 2.557185 -65.712580 -0.965285 0.342569 -39.057480 -13.436720 -6.123425 -56.796410 -2.917774 2.395303 -78.743570 -1.963930 0.770433 -42.846420 -35.341630 -14.288090 -64.136940 -3.687108 2.890958 -76.182490 -2.659058 1.176188 -47.713890 -23.275650 -7.805350 -70.736620 -2.017953 1.826270 -84.281620 0.215256 -0.077795 -39.724910 56.074880 52.760420 -51.234850 -3.665583 0.449751 -13.984240 -4.555906 1.281976 -31.419930
-0.110297 0.297670 0.657782 -65.759480 34.266290 174.071400 -1.244523 5.157129 30.787000 -2.809617 1.105755 -40.827930 -3.958268 2.557185 -65.712580 -0.965285 0.342569 -39.057480 -13.436720 -6.123425 -56.796410 -2.917774 2.395303 -78.743570 -1.963930 0.770433 -42.846420 -35.341630 -14.288090 -64.136940 -3.687108 2.890958 -76.182490 -2.659058 1.176188 -47.713890 -23.275650 -7.805350 -70.736620 -2.017953 1.826270 -84.281620 0.215256 -0.077795 -39.724910 56.074880 52.760420 -51.234850 -3.665583 0.449751 -13.984240 -4.555906 1.281976 -31.419930
-0.110297 0.297670 0.657782 -65.759480 34.266290 174.071400 -1.244523 5.157129 30.787000 -2.809617 1.105755 -40.827930 -3.958268 2.557185 -65.712580 -0.965285 0.342569 -39.057480 -13.436720 -6.123425 -56.796410 -2.917774 2.395303 -78.743570 -1.963930 0.770433 -42.846420 -35.341630 -14.288090 -64.136940 -3.687108 2.890958 -76.182490 -2.659058 1.176188 -47.713890 -23.275650 -7.805350 -70.736620 -2.017953 1.826270 -84.281620 0.215256 -0.077795 -39.724910 56.074880 52.760420 -51.234850 -3.665583 0.449751 -13.984240 -4.555906 1.281976 -31.419930
-0.110297 0.297670 0.657782 -65.759480 34.266290 174.071400 -1.244523 5.157129 30.787000 -2.809617 1.105755 -40.827930 -3.958268 2.557185 -65.712580 -0.965285 0.342569 -39.057480 -13.436720 -6.123425 -56.796410 -2.917774 2.395303 -78.743570 -1.963930 0.770433 -42.846420 -35.341630 -14.288090 -64.136940 -3.687108 2.890958 -76.182490 -2.659058 1.176188 -47.713890 -23.275650 -7.805350 -70.736620 -2.017953 1.826270 -84.281620 0.215256 -0.077795 -39.724910 56.074880 52.760420 -51.234850 -3.665583 0.449751 -13.984240 -4.555906 1.281976 -31.419930
-0.110297 0.297670 0.657782 -65.759480 34.266290 174.071400 -1.244523 5.157129 30.787000 -2.809617 1.105755 -40.827930 -3.958268 2.557185 -65.712580 -0.965285 0.342569 -39.057480 -13.436720 -6.123425 -56.796410 -2.917774 2.395303 -78.743570 -1.963930 0.770433 -42.846420 -35.341630 -14.288090 -64.136940 -3.687108 2.890958 -76.182490 -2.659058 1.176188 -47.713890 -23.275650 -7.805350 -70.736620 -2.017953 1.826270 -84.281620 0.215256 -0.077795 -39.724910 56.074880 52.760420 -51.234850 -3.665583 0.449751 -13.984240 -4.555906 1.281976 -31.419930
-0.110297 0.297670 0.657782 -65.759480 34.266290 174.071400 -1.244523 5.157129 30.787000 -2.809617 1.105755 -40.827930 -3.958268 2.557185 -65.712580 -0.965285 0.342569 -39.057480 -13.436720 -6.123425 -56.796410 -2.917774 2.395303 -78.743570 -1.963930 0.770433 -42.846420 -35.341630 -14.288090 -64.136940 -3.687108 2.890958 -76.182490 -2.659058 1.176188 -47.713890 -23.275650 -7.805350 -70.736620 -2.017953 1.826270 -84.281620 0.215256 -0.077795 -39.724910 56.074880 52.760420 -51.234850 -3.665583 0.449751 -13.984240 -4.555906 1.281976 -31.419930
-0.132135 0.214296 0.636738 -68.690980 25.745560 -177.478800 -8.076846 5.142941 30.692650 -5.414863 1.961705 -33.981190 -2.468833 1.161794 -50.393260 -2.500381 0.656209 -29.383660 -12.262200 -7.453393 -36.552810 -0.192345 0.100787 -55.388980 -0.944318 0.315974 -36.998780 -29.191730 -19.286620 -20.947450 1.211659 -0.487830 -43.809600 1.650994 -0.489960 -33.082360 -20.350550 -10.995230 -24.785480 0.328912 -0.133814 -44.274330 0.079408 -0.018097 -25.665200 61.054400 51.187320 -50.723780 -4.037542 0.548213 -15.460820 0.431382 -0.126520 -32.633330
